<svg style="position: absolute; width: 0; height: 0; overflow: hidden;" version="1.1" xmlns="http://www.w3.org/2000/svg">
<defs>
<symbol id="icon-home" viewBox="0 0 24 24">
<path d="M 12 2 A 1 1 0 0 0 11.289062 2.296875 L 1.203125 11.097656 A 0.5 0.5 0 0 0 1 11.5 A 0.5 0.5 0 0 0 1.5 12 L 4 12 L 4 20 C 4 20.552 4.448 21 5 21 L 9 21 C 9.552 21 10 20.552 10 20 L 10 14 L 14 14 L 14 20 C 14 20.552 14.448 21 15 21 L 19 21 C 19.552 21 20 20.552 20 20 L 20 12 L 22.5 12 A 0.5 0.5 0 0 0 23 11.5 A 0.5 0.5 0 0 0 22.796875 11.097656 L 12.716797 2.3027344 A 1 1 0 0 0 12.710938 2.296875 A 1 1 0 0 0 12 2 z"/>
</symbol>
<symbol id="icon-live" viewBox="0 0 24 24">
<path d="M 4.2246094 4.2246094 C 2.2336094 6.2166094 1 8.967 1 12 C 1 15.033 2.2336094 17.783391 4.2246094 19.775391 L 5.6386719 18.361328 C 4.0086719 16.731328 3 14.481 3 12 C 3 9.519 4.0086719 7.2686719 5.6386719 5.6386719 L 4.2246094 4.2246094 z M 19.775391 4.2246094 L 18.361328 5.6386719 C 19.991328 7.2686719 21 9.519 21 12 C 21 14.481 19.991328 16.731328 18.361328 18.361328 L 19.775391 19.775391 C 21.766391 17.783391 23 15.033 23 12 C 23 8.967 21.766391 6.2166094 19.775391 4.2246094 z M 7.0527344 7.0527344 C 5.7847344 8.3197344 5 10.07 5 12 C 5 13.93 5.7847344 15.680266 7.0527344 16.947266 L 8.4667969 15.533203 C 7.5607969 14.628203 7 13.378 7 12 C 7 10.622 7.5617969 9.3727969 8.4667969 8.4667969 L 7.0527344 7.0527344 z M 16.947266 7.0527344 L 15.533203 8.4667969 C 16.439203 9.3717969 17 10.622 17 12 C 17 13.378 16.438203 14.627203 15.533203 15.533203 L 16.947266 16.947266 C 18.214266 15.679266 19 13.93 19 12 C 19 10.07 18.215266 8.3197344 16.947266 7.0527344 z M 12 9 A 3 3 0 0 0 12 15 A 3 3 0 0 0 12 9 z"/>
</symbol>
<symbol id="icon-info" viewBox="0 0 50 50">
<path d="M 25 2 C 12.309295 2 2 12.309295 2 25 C 2 37.690705 12.309295 48 25 48 C 37.690705 48 48 37.690705 48 25 C 48 12.309295 37.690705 2 25 2 z M 25 4 C 36.609824 4 46 13.390176 46 25 C 46 36.609824 36.609824 46 25 46 C 13.390176 46 4 36.609824 4 25 C 4 13.390176 13.390176 4 25 4 z M 25 11 A 3 3 0 0 0 22 14 A 3 3 0 0 0 25 17 A 3 3 0 0 0 28 14 A 3 3 0 0 0 25 11 z M 21 21 L 21 23 L 22 23 L 23 23 L 23 36 L 22 36 L 21 36 L 21 38 L 22 38 L 23 38 L 27 38 L 28 38 L 29 38 L 29 36 L 28 36 L 27 36 L 27 21 L 26 21 L 22 21 L 21 21 z"/>
</symbol>
<symbol id="icon-exit" viewBox="0 0 50 50">
<path d="M 7.71875 6.28125 L 6.28125 7.71875 L 23.5625 25 L 6.28125 42.28125 L 7.71875 43.71875 L 25 26.4375 L 42.28125 43.71875 L 43.71875 42.28125 L 26.4375 25 L 43.71875 7.71875 L 42.28125 6.28125 L 25 23.5625 Z"/>
</symbol>
</defs>
</svg>