<svg style="position: absolute; width: 0; height: 0; overflow: hidden;" version="1.1" xmlns="http://www.w3.org/2000/svg">
<defs>
<symbol id="icon-home" viewBox="0 0 24 24">
<path d="M 12 2 A 1 1 0 0 0 11.289062 2.296875 L 1.203125 11.097656 A 0.5 0.5 0 0 0 1 11.5 A 0.5 0.5 0 0 0 1.5 12 L 4 12 L 4 20 C 4 20.552 4.448 21 5 21 L 9 21 C 9.552 21 10 20.552 10 20 L 10 14 L 14 14 L 14 20 C 14 20.552 14.448 21 15 21 L 19 21 C 19.552 21 20 20.552 20 20 L 20 12 L 22.5 12 A 0.5 0.5 0 0 0 23 11.5 A 0.5 0.5 0 0 0 22.796875 11.097656 L 12.716797 2.3027344 A 1 1 0 0 0 12.710938 2.296875 A 1 1 0 0 0 12 2 z"/>
</symbol>
<symbol id="icon-live" viewBox="0 0 24 24">
<path d="M 4.2246094 4.2246094 C 2.2336094 6.2166094 1 8.967 1 12 C 1 15.033 2.2336094 17.783391 4.2246094 19.775391 L 5.6386719 18.361328 C 4.0086719 16.731328 3 14.481 3 12 C 3 9.519 4.0086719 7.2686719 5.6386719 5.6386719 L 4.2246094 4.2246094 z M 19.775391 4.2246094 L 18.361328 5.6386719 C 19.991328 7.2686719 21 9.519 21 12 C 21 14.481 19.991328 16.731328 18.361328 18.361328 L 19.775391 19.775391 C 21.766391 17.783391 23 15.033 23 12 C 23 8.967 21.766391 6.2166094 19.775391 4.2246094 z M 7.0527344 7.0527344 C 5.7847344 8.3197344 5 10.07 5 12 C 5 13.93 5.7847344 15.680266 7.0527344 16.947266 L 8.4667969 15.533203 C 7.5607969 14.628203 7 13.378 7 12 C 7 10.622 7.5617969 9.3727969 8.4667969 8.4667969 L 7.0527344 7.0527344 z M 16.947266 7.0527344 L 15.533203 8.4667969 C 16.439203 9.3717969 17 10.622 17 12 C 17 13.378 16.438203 14.627203 15.533203 15.533203 L 16.947266 16.947266 C 18.214266 15.679266 19 13.93 19 12 C 19 10.07 18.215266 8.3197344 16.947266 7.0527344 z M 12 9 A 3 3 0 0 0 12 15 A 3 3 0 0 0 12 9 z"/>
</symbol>
<symbol id="icon-exit" viewBox="0 0 24 24">
<path d="M 4.9902344 3.9902344 A 1.0001 1.0001 0 0 0 4.2929688 5.7070312 L 10.585938 12 L 4.2929688 18.292969 A 1.0001 1.0001 0 1 0 5.7070312 19.707031 L 12 13.414062 L 18.292969 19.707031 A 1.0001 1.0001 0 1 0 19.707031 18.292969 L 13.414062 12 L 19.707031 5.7070312 A 1.0001 1.0001 0 0 0 18.980469 3.9902344 A 1.0001 1.0001 0 0 0 18.292969 4.2929688 L 12 10.585938 L 5.7070312 4.2929688 A 1.0001 1.0001 0 0 0 4.9902344 3.9902344 z"/>
</symbol>
<symbol id="icon-info" viewBox="0 0 50 50">
<path d="M25,2C12.297,2,2,12.297,2,25s10.297,23,23,23s23-10.297,23-23S37.703,2,25,2z M25,11c1.657,0,3,1.343,3,3s-1.343,3-3,3 s-3-1.343-3-3S23.343,11,25,11z M29,38h-2h-4h-2v-2h2V23h-2v-2h2h4v2v13h2V38z"/>
</symbol>
<symbol id="icon-stages" viewBox="0 0 512 512">
<path d="m497 0h-482c-8.285156 0-15 6.714844-15 15v482c0 8.285156 6.714844 15 15 15h482c8.285156 0 15-6.714844 15-15 0-14.273438 0-463.605469 0-482 0-8.285156-6.714844-15-15-15zm-104.652344 482h-30.347656v-45c0-8.285156-6.714844-15-15-15h-182c-8.285156 0-15 6.714844-15 15v45h-30.347656c-2.367188-54.671875-16.792969-138.714844-51.054688-181.769531 25.378906-3.832031 55.464844-13.433594 81.601563-35.578125 37.308593-31.601563 57.320312-80.683594 59.582031-146 10.703125-3.53125 18.699219-10.417969 25.511719-16.289063 8.417969-7.257812 13.53125-11.363281 20.707031-11.363281s12.289062 4.105469 20.707031 11.359375c6.8125 5.875 14.8125 12.761719 25.515625 16.289063 2.257813 65.316406 22.269532 114.398437 59.578125 146.003906 26.140625 22.144531 56.226563 31.746094 81.601563 35.578125-34.261719 43.054687-48.6875 127.101562-51.054688 181.769531zm-60.347656 0h-152v-30h152zm-270.222656-285.445312c3.914062 7.300781 13.007812 10.046874 20.308594 6.136718 32.753906-17.550781 38.605468-64.996094 37.859374-101.992187-.015624-.875-.125-1.726563-.285156-2.558594 5.519532-4.601563 9.761719-7.140625 15.339844-7.140625 7.058594 0 11.96875 4.054688 20.042969 11.21875 6.578125 5.839844 14.28125 12.667969 24.722656 16.265625-2.089844 55.945313-18.460937 97.328125-48.757813 123.109375-34.519531 29.378906-79.476562 31.589844-101.007812 30.679688v-174.414063c1.5625 1.289063 3.21875 2.742187 5.042969 4.359375 9.429687 8.367188 21.160156 18.78125 39.957031 18.78125 5.441406 0 10.285156-.875 14.660156-2.320312-1.046875 18.734374-5.125 48.660156-21.746094 57.566406-7.300781 3.914062-10.046874 13.007812-6.136718 20.308594zm368.136718 6.136718c7.304688 3.914063 16.394532 1.164063 20.308594-6.136718 3.910156-7.300782 1.164063-16.394532-6.136718-20.308594-16.78125-8.992188-20.675782-38.347656-21.742188-57.566406 4.371094 1.445312 9.214844 2.320312 14.65625 2.320312 18.796875 0 30.527344-10.414062 39.957031-18.78125 1.824219-1.617188 3.480469-3.070312 5.042969-4.359375v174.460937c-21.421875.964844-66.105469-1.160156-100.808594-30.558593-30.425781-25.769531-46.863281-67.210938-48.957031-123.277344 10.441406-3.597656 18.144531-10.425781 24.722656-16.265625 8.074219-7.164062 12.984375-11.21875 20.042969-11.21875 5.507812 0 9.710938 2.476562 15.125 6.964844-1.1875 38.011718 4.351562 86.808594 37.789062 104.726562zm52.085938-172.691406v33.433594c-10.558594 3.578125-18.328125 10.464844-24.957031 16.347656-8.074219 7.164062-12.984375 11.21875-20.042969 11.21875s-11.96875-4.054688-20.042969-11.21875c-9.429687-8.367188-21.160156-18.78125-39.957031-18.78125s-30.527344 10.414062-39.957031 18.78125c-8.074219 7.164062-12.984375 11.21875-20.042969 11.21875-7.175781 0-12.289062-4.105469-20.707031-11.359375-9.632813-8.304687-21.621094-18.640625-40.292969-18.640625s-30.660156 10.335938-40.292969 18.640625c-8.417969 7.253906-13.53125 11.359375-20.707031 11.359375-7.058594 0-11.96875-4.054688-20.042969-11.21875-9.429687-8.367188-21.160156-18.78125-39.957031-18.78125s-30.527344 10.414062-39.957031 18.78125c-8.074219 7.164062-12.984375 11.21875-20.042969 11.21875s-11.96875-4.054688-20.042969-11.21875c-6.628906-5.882812-14.398437-12.769531-24.957031-16.347656v-33.433594zm-452 452v-176.828125c41.21875 23.511719 57.386719 129.191406 59.625 176.828125zm452 0h-59.625c2.238281-47.640625 18.40625-153.316406 59.625-176.828125zm0 0"/>
</symbol>
<symbol id="icon-play" viewBox="0 0 320.001 320.001">
<path d="M295.84,146.049l-256-144c-4.96-2.784-11.008-2.72-15.904,0.128C19.008,5.057,16,10.305,16,16.001v288
	c0,5.696,3.008,10.944,7.936,13.824c2.496,1.44,5.28,2.176,8.064,2.176c2.688,0,5.408-0.672,7.84-2.048l256-144
	c5.024-2.848,8.16-8.16,8.16-13.952S300.864,148.897,295.84,146.049z"/>
<g>
</g>
<g>
</g>
<g>
</g>
<g>
</g>
<g>
</g>
<g>
</g>
<g>
</g>
<g>
</g>
<g>
</g>
<g>
</g>
<g>
</g>
<g>
</g>
<g>
</g>
<g>
</g>
<g>
</g>
</symbol>
<symbol id="icon-404" viewBox="0 0 500 500">
<g id="freepik--background-simple--inject-15"><path d="M104.69,145.88c-15.32,40.81-2.09,95.9,21.58,139,61,111.9,209.44,48.63,206.88-2.19,3.48-48.48-40.12-62.88-54.91-90.06C195.42,39.21,117,111.47,104.69,145.88Z" style="fill:#1E6D94"></path><path d="M104.69,145.88c-15.32,40.81-2.09,95.9,21.58,139,61,111.9,209.44,48.63,206.88-2.19,3.48-48.48-40.12-62.88-54.91-90.06C195.42,39.21,117,111.47,104.69,145.88Z" style="fill:#fff;opacity:0.9"></path></g><g id="freepik--404--inject-15"><path d="M147.68,287.64H86.83V260.17l60.85-72.34H176.8v73.9h15.09v25.91H176.8v22.48H147.68Zm0-25.91V223.89l-32.16,37.84Z" style="fill:#1E6D94"></path><path d="M202.3,249.51q0-34.29,12.34-48t37.61-13.7q12.13,0,19.93,3a36.79,36.79,0,0,1,12.71,7.79,41.59,41.59,0,0,1,7.75,10.09,52.38,52.38,0,0,1,4.55,12.34,115.36,115.36,0,0,1,3.36,28q0,32.72-11.07,47.89t-38.13,15.18q-15.18,0-24.53-4.84a39.76,39.76,0,0,1-15.33-14.19q-4.35-6.64-6.77-18.17A124.33,124.33,0,0,1,202.3,249.51Zm33.14.08q0,23,4.05,31.37t11.77,8.41a12.34,12.34,0,0,0,8.82-3.57q3.74-3.57,5.5-11.28t1.76-24q0-23.94-4.06-32.19t-12.18-8.24q-8.28,0-12,8.41T235.44,249.59Z" style="fill:#1E6D94"></path><path d="M371.74,287.64H310.89V260.17l60.85-72.34h29.12v73.9H416v25.91H400.86v22.48H371.74Zm0-25.91V223.89l-32.15,37.84Z" style="fill:#1E6D94"></path></g><g id="freepik--Planets--inject-15"><g style="opacity:0.30000000000000004"><path d="M201,145.62a1.87,1.87,0,1,1-1.86-1.87A1.86,1.86,0,0,1,201,145.62Z" style="fill:#1E6D94"></path><circle cx="72.97" cy="216.13" r="1.32" style="fill:#1E6D94"></circle><circle cx="291.05" cy="408.33" r="1.89" style="fill:#1E6D94"></circle><circle cx="336.5" cy="332" r="1.32" style="fill:#1E6D94"></circle><path d="M424.17,95.62a1.32,1.32,0,1,1-1.32-1.32A1.32,1.32,0,0,1,424.17,95.62Z" style="fill:#1E6D94"></path><path d="M172.75,69a1.32,1.32,0,1,1-1.32-1.32A1.33,1.33,0,0,1,172.75,69Z" style="fill:#1E6D94"></path><circle cx="277.7" cy="136.94" r="1.32" style="fill:#1E6D94"></circle></g><circle cx="141.23" cy="116.36" r="21.91" style="fill:#1E6D94"></circle><circle cx="141.23" cy="116.36" r="21.91" style="fill:#fff;opacity:0.7000000000000001"></circle><path d="M133.68,99.83A21.84,21.84,0,0,0,125,101.6a21.92,21.92,0,0,0,24.87,34.89h0a21.92,21.92,0,0,0-16.23-36.65Z" style="fill:#1E6D94;opacity:0.2"></path><path d="M131.5,105.62a2,2,0,1,1-2-2A2,2,0,0,1,131.5,105.62Z" style="fill:#1E6D94;opacity:0.2"></path><path d="M155.06,103.62a2,2,0,1,1-2-2A2,2,0,0,1,155.06,103.62Z" style="fill:#1E6D94;opacity:0.2"></path><path d="M151.06,117.9a3.28,3.28,0,1,1-3.28-3.28A3.28,3.28,0,0,1,151.06,117.9Z" style="fill:#1E6D94;opacity:0.2"></path><path d="M140.64,127.25a4.38,4.38,0,1,1-4.38-4.38A4.38,4.38,0,0,1,140.64,127.25Z" style="fill:#1E6D94;opacity:0.2"></path><circle cx="382.2" cy="376.25" r="19.23" transform="translate(-71.8 661.78) rotate(-76.72)" style="fill:#1E6D94"></circle><circle cx="382.2" cy="376.25" r="19.23" transform="translate(-71.8 661.78) rotate(-76.72)" style="fill:#fff;opacity:0.30000000000000004"></circle><path d="M394.33,361.34a19.22,19.22,0,0,0-17.67,33.32,19,19,0,0,0,5.53.82,19.23,19.23,0,0,0,12.14-34.14Z" style="fill:#1E6D94;opacity:0.4"></path><path d="M363.83,382c-20.53,9.66-5.22,17.11,23.71,6.71,26.79-9.63,37-21.77,13-18C401.83,375.76,368.28,388.83,363.83,382Z" style="fill:#1E6D94"></path></g><g id="freepik--Astronaut--inject-15"><path d="M394.1,187.83C367.21,206,332.4,230,322.79,287.64h-2.05c9.35-57,42.89-81.57,69.79-99.81Z" style="opacity:0.2"></path><path d="M255,368.27c-17,0-33.81-7.67-42-20.19-5.05-7.74-10.92-23.95,6.56-45.58l1.55,1.26c-12.36,15.3-14.64,30.65-6.43,43.23,10,15.3,33.59,23,53.73,17.52,20.63-5.61,33.15-23.55,34.36-49.22,4.13-87.81,50.78-114.86,84.84-134.61,21.17-12.27,36.46-21.13,33.1-39.84-.47-2.59-1.5-4.38-3.17-5.48-4.35-2.87-12.85-.88-22.69,1.41-19.31,4.5-45.75,10.66-61.5-16.13l1.73-1c15,25.53,39.57,19.8,59.32,15.2,10.29-2.39,19.17-4.46,24.24-1.13,2.15,1.41,3.47,3.64,4,6.8,3.61,20.08-13,29.72-34.05,41.92-33.67,19.52-79.77,46.25-83.85,133-1.26,26.6-14.32,45.21-35.84,51.06A52.88,52.88,0,0,1,255,368.27Z" style="fill:#1E6D94"></path><path d="M255,368.27c-17,0-33.81-7.67-42-20.19-5.05-7.74-10.92-23.95,6.56-45.58l1.55,1.26c-12.36,15.3-14.64,30.65-6.43,43.23,10,15.3,33.59,23,53.73,17.52,20.63-5.61,33.15-23.55,34.36-49.22,4.13-87.81,50.78-114.86,84.84-134.61,21.17-12.27,36.46-21.13,33.1-39.84-.47-2.59-1.5-4.38-3.17-5.48-4.35-2.87-12.85-.88-22.69,1.41-19.31,4.5-45.75,10.66-61.5-16.13l1.73-1c15,25.53,39.57,19.8,59.32,15.2,10.29-2.39,19.17-4.46,24.24-1.13,2.15,1.41,3.47,3.64,4,6.8,3.61,20.08-13,29.72-34.05,41.92-33.67,19.52-79.77,46.25-83.85,133-1.26,26.6-14.32,45.21-35.84,51.06A52.88,52.88,0,0,1,255,368.27Z" style="fill:#fff;opacity:0.2"></path><path d="M312.76,97a46.05,46.05,0,0,1,13.58,2.13s11,18.77,12.3,23.07c-.46,4.24-7.61,11.19-7.61,11.19Z" style="fill:#1E6D94"></path><path d="M312.76,97a46.05,46.05,0,0,1,13.58,2.13s11,18.77,12.3,23.07c-.46,4.24-7.61,11.19-7.61,11.19Z" style="fill:#fff;opacity:0.30000000000000004"></path><path d="M345.34,188.13a141.41,141.41,0,0,1-11.56-16.38q-1.26-2.17-2.39-4.42c-.43-.85-.84-1.7-1.24-2.56a10.76,10.76,0,0,1-1.21-2.69c-1.2-12.67,3.14-22-1-32.17l-16.48,6.44s1.4,18.12,4.6,29c2,6.73,6.48,12.55,10.81,17.94,1.35,1.68,2.65,3.41,4,5.1s2.71,3.06,4,4.65c1.95,2.41,2.59,4.72,1.12,7.56l-.25.45c-.42.74,1.54,1.58,2.78,0,2-2.58,1.72-2.42,3.46-4.62,1.06-1.33,2.27-2.78,3.32-4A3.37,3.37,0,0,0,345.34,188.13Z" style="fill:#1E6D94"></path><path d="M345.34,188.13a141.41,141.41,0,0,1-11.56-16.38q-1.26-2.17-2.39-4.42c-.43-.85-.84-1.7-1.24-2.56a10.76,10.76,0,0,1-1.21-2.69c-1.2-12.67,3.14-22-1-32.17l-16.48,6.44s1.4,18.12,4.6,29c2,6.73,6.48,12.55,10.81,17.94,1.35,1.68,2.65,3.41,4,5.1s2.71,3.06,4,4.65c1.95,2.41,2.59,4.72,1.12,7.56l-.25.45c-.42.74,1.54,1.58,2.78,0,2-2.58,1.72-2.42,3.46-4.62,1.06-1.33,2.27-2.78,3.32-4A3.37,3.37,0,0,0,345.34,188.13Z" style="fill:#fff;opacity:0.7000000000000001"></path><path d="M341.31,182.92a54.69,54.69,0,0,1-8.66,7.52c.43.48.85,1,1.28,1.46a43.92,43.92,0,0,0,8.5-7.51Z" style="fill:#1E6D94;opacity:0.30000000000000004"></path><path d="M345.34,188.13l-.12-.14a5.18,5.18,0,0,0-1.27,3.17,5,5,0,0,0,.38,2.35l.95-1.13A3.37,3.37,0,0,0,345.34,188.13Z" style="fill:#1E6D94;opacity:0.30000000000000004"></path><path d="M308.84,109a35.38,35.38,0,0,1-6.37,7.19,23.27,23.27,0,0,1-4.42,3,19,19,0,0,1-2.58,1.09l-.68.22-.22.06-.47.13a5.93,5.93,0,0,1-.88.14,7.55,7.55,0,0,1-2.51-.23,12.24,12.24,0,0,1-2.94-1.27,25,25,0,0,1-2.15-1.41,40.31,40.31,0,0,1-3.58-3,53.16,53.16,0,0,1-6-6.74,2.51,2.51,0,0,1,3.35-3.62l.08,0c2.36,1.5,4.74,3.08,7.06,4.49,1.18.69,2.32,1.39,3.45,1.93a15.29,15.29,0,0,0,1.59.72,3.12,3.12,0,0,0,1.07.26c.06,0,0-.07-.37-.06a2.93,2.93,0,0,0-.35,0l-.22.05,0,0,.33-.17a13.53,13.53,0,0,0,1.29-.79,18.4,18.4,0,0,0,2.5-2.12,63.62,63.62,0,0,0,4.9-5.79l0,0a5,5,0,0,1,8,5.93Z" style="fill:#1E6D94"></path><path d="M308.84,109a35.38,35.38,0,0,1-6.37,7.19,23.27,23.27,0,0,1-4.42,3,19,19,0,0,1-2.58,1.09l-.68.22-.22.06-.47.13a5.93,5.93,0,0,1-.88.14,7.55,7.55,0,0,1-2.51-.23,12.24,12.24,0,0,1-2.94-1.27,25,25,0,0,1-2.15-1.41,40.31,40.31,0,0,1-3.58-3,53.16,53.16,0,0,1-6-6.74,2.51,2.51,0,0,1,3.35-3.62l.08,0c2.36,1.5,4.74,3.08,7.06,4.49,1.18.69,2.32,1.39,3.45,1.93a15.29,15.29,0,0,0,1.59.72,3.12,3.12,0,0,0,1.07.26c.06,0,0-.07-.37-.06a2.93,2.93,0,0,0-.35,0l-.22.05,0,0,.33-.17a13.53,13.53,0,0,0,1.29-.79,18.4,18.4,0,0,0,2.5-2.12,63.62,63.62,0,0,0,4.9-5.79l0,0a5,5,0,0,1,8,5.93Z" style="fill:#fff;opacity:0.7000000000000001"></path><path d="M272.29,102.42l1.17,2s.89,2.62,2.68,3.1l4.86-1.57-.25-.41h0c-.62-.94-.55-2.77-.34-4.29s-.57-1.57-1.15-1.19a3.82,3.82,0,0,0-.84,1.65,7.77,7.77,0,0,0-.79-.93l-1.48-1.48a1.72,1.72,0,0,0-2.34-.06l-1.2,1.07A1.71,1.71,0,0,0,272.29,102.42Z" style="fill:#1E6D94"></path><path d="M272.29,102.42l1.17,2s.89,2.62,2.68,3.1l4.86-1.57-.25-.41h0c-.62-.94-.55-2.77-.34-4.29s-.57-1.57-1.15-1.19a3.82,3.82,0,0,0-.84,1.65,7.77,7.77,0,0,0-.79-.93l-1.48-1.48a1.72,1.72,0,0,0-2.34-.06l-1.2,1.07A1.71,1.71,0,0,0,272.29,102.42Z" style="fill:#fff;opacity:0.7000000000000001"></path><path d="M317.67,95.22a59.64,59.64,0,0,0-15.34,6.47,4.32,4.32,0,0,0-1.94,4.53c1.93,9.44,6.32,22.08,11.06,30.13l22.11-9.15c.15-3.9-5.22-16.52-10.69-28.72C321.89,96.29,320,94.66,317.67,95.22Z" style="fill:#1E6D94"></path><path d="M317.67,95.22a59.64,59.64,0,0,0-15.34,6.47,4.32,4.32,0,0,0-1.94,4.53c1.93,9.44,6.32,22.08,11.06,30.13l22.11-9.15c.15-3.9-5.22-16.52-10.69-28.72C321.89,96.29,320,94.66,317.67,95.22Z" style="fill:#fff;opacity:0.8"></path><path d="M326.3,106.21l-4.39-1.47c1,2.57,4.53,5.82,7,7.73C328.11,110.47,327.22,108.37,326.3,106.21Z" style="fill:#1E6D94;opacity:0.30000000000000004"></path><path d="M316.22,85.32c-1.83-3.48-5.78-5.23-10.52-4.84-4,.34-7.54,4.42-7.12,6.62S302.36,90.24,303,91l-2.77,2a3,3,0,0,0-.6,4.29c1.17,1.48,2.71,3,3.6,4.12,7.66-.2,13.33-3.12,15.38-5.93C317.84,91.92,318,88.78,316.22,85.32Z" style="fill:#1E6D94"></path><path d="M316.22,85.32c-1.83-3.48-5.78-5.23-10.52-4.84-4,.34-7.54,4.42-7.12,6.62S302.36,90.24,303,91l-2.77,2a3,3,0,0,0-.6,4.29c1.17,1.48,2.71,3,3.6,4.12,7.66-.2,13.33-3.12,15.38-5.93C317.84,91.92,318,88.78,316.22,85.32Z" style="fill:#fff;opacity:0.8"></path><path d="M312.46,87.48a7.57,7.57,0,1,1-9.81-4.3A7.58,7.58,0,0,1,312.46,87.48Z" style="fill:#263238"></path><path d="M377.39,177.6c-.11-3.29-.26-3-.35-5.77-.06-1.7-.07-3.59-.08-5.22a3.36,3.36,0,0,0-2.7-3.28c-1.32-.27-2.65-.52-4-.8-1.73-.37-3.44-.77-5.13-1.26-1.32-.38-2.62-.8-3.91-1.27s-2.74-1-4.08-1.62c-1.58-.67-3.14-1.39-4.68-2.14-1.73-.82-3.44-1.68-5.15-2.55-6.58-10.89-6.72-18.07-13.78-26.49l-15.16,6.86s11.14,19.76,18.72,28.14c4.37,4.82,11.22,7,17.33,8.58,4.41,1.13,8.88,2,13.35,2.83,1.74.32,3.63.44,5.13,1.48a5.74,5.74,0,0,1,2.14,3.45q.1.42.18.84C375.41,180.22,377.46,179.58,377.39,177.6Z" style="fill:#1E6D94"></path><path d="M377.39,177.6c-.11-3.29-.26-3-.35-5.77-.06-1.7-.07-3.59-.08-5.22a3.36,3.36,0,0,0-2.7-3.28c-1.32-.27-2.65-.52-4-.8-1.73-.37-3.44-.77-5.13-1.26-1.32-.38-2.62-.8-3.91-1.27s-2.74-1-4.08-1.62c-1.58-.67-3.14-1.39-4.68-2.14-1.73-.82-3.44-1.68-5.15-2.55-6.58-10.89-6.72-18.07-13.78-26.49l-15.16,6.86s11.14,19.76,18.72,28.14c4.37,4.82,11.22,7,17.33,8.58,4.41,1.13,8.88,2,13.35,2.83,1.74.32,3.63.44,5.13,1.48a5.74,5.74,0,0,1,2.14,3.45q.1.42.18.84C375.41,180.22,377.46,179.58,377.39,177.6Z" style="fill:#fff;opacity:0.8"></path><path d="M369.7,162.4c-.6-.13-1.2-.26-1.81-.41.05,3.46-1.57,9.42-2.16,11.23l1.9.36A38.11,38.11,0,0,0,369.7,162.4Z" style="fill:#1E6D94;opacity:0.30000000000000004"></path><path d="M377,166.61a3.36,3.36,0,0,0-2.69-3.28l-1-.19a4.58,4.58,0,0,0,1.63,2.9,5.09,5.09,0,0,0,2,1.14C377,167,377,166.8,377,166.61Z" style="fill:#1E6D94;opacity:0.30000000000000004"></path><path d="M311.05,87.54c.4,1.52-1.3,3.11-2.65,1.8a30.83,30.83,0,0,0-4.12-3.69c-1.39-.87.46-2.39,2.65-1.8A5.94,5.94,0,0,1,311.05,87.54Z" style="fill:#fff"></path><path d="M311.16,135.86c-.7.26.58,1.46.58,1.46s14-4.79,22.5-9.72a1.88,1.88,0,0,0-.68-1.58A216,216,0,0,1,311.16,135.86Z" style="fill:#1E6D94"></path><path d="M311.16,135.86c-.7.26.58,1.46.58,1.46s14-4.79,22.5-9.72a1.88,1.88,0,0,0-.68-1.58A216,216,0,0,1,311.16,135.86Z" style="fill:#fff;opacity:0.5"></path><path d="M321.46,94.56c2.76,1.4,5.35,2.87,8,4.5,1.29.82,2.57,1.65,3.84,2.55s2.53,1.82,3.8,2.86l.47.39.59.54a12.74,12.74,0,0,1,1,1c.32.35.59.69.85,1s.54.68.77,1a43.8,43.8,0,0,1,2.58,4,59.05,59.05,0,0,1,4,8.35,2.52,2.52,0,0,1-4.19,2.62l-.05-.06c-2-2.13-3.93-4.37-5.87-6.46s-3.91-4.21-5.54-5.14c-2.27-1.41-4.8-2.82-7.31-4.2l-7.56-4.2h0a5,5,0,0,1,4.68-8.84Z" style="fill:#1E6D94"></path><path d="M321.46,94.56c2.76,1.4,5.35,2.87,8,4.5,1.29.82,2.57,1.65,3.84,2.55s2.53,1.82,3.8,2.86l.47.39.59.54a12.74,12.74,0,0,1,1,1c.32.35.59.69.85,1s.54.68.77,1a43.8,43.8,0,0,1,2.58,4,59.05,59.05,0,0,1,4,8.35,2.52,2.52,0,0,1-4.19,2.62l-.05-.06c-2-2.13-3.93-4.37-5.87-6.46s-3.91-4.21-5.54-5.14c-2.27-1.41-4.8-2.82-7.31-4.2l-7.56-4.2h0a5,5,0,0,1,4.68-8.84Z" style="fill:#fff;opacity:0.8"></path><path d="M349.73,125.74l-.85-2.13s-.47-2.72-2.16-3.48l-5,.79.17.44h0c.46,1,.11,2.83-.34,4.29s.31,1.65.95,1.36c.36-.16.71-.81,1.09-1.5a8.46,8.46,0,0,0,.63,1l1.23,1.69a1.72,1.72,0,0,0,2.3.44l1.36-.87A1.7,1.7,0,0,0,349.73,125.74Z" style="fill:#1E6D94"></path><path d="M349.73,125.74l-.85-2.13s-.47-2.72-2.16-3.48l-5,.79.17.44h0c.46,1,.11,2.83-.34,4.29s.31,1.65.95,1.36c.36-.16.71-.81,1.09-1.5a8.46,8.46,0,0,0,.63,1l1.23,1.69a1.72,1.72,0,0,0,2.3.44l1.36-.87A1.7,1.7,0,0,0,349.73,125.74Z" style="fill:#fff;opacity:0.8"></path><path d="M317.24,106.06l-1.22.1-7.49,18.08a4,4,0,0,0,1.22-.1s9.76-3.64,12.71-5C320.48,115.05,317.24,106.06,317.24,106.06Z" style="fill:#1E6D94;opacity:0.30000000000000004"></path><path d="M303.57,110.8a43.41,43.41,0,0,0,5,13.44c3.66-1.26,9.76-3.64,12.72-5A135.36,135.36,0,0,1,316,106.16C312.87,106.37,306,109,303.57,110.8Z" style="fill:#fff"></path><path d="M311,114.71a2.58,2.58,0,1,1-1.73-3.21A2.58,2.58,0,0,1,311,114.71Z" style="fill:#1E6D94;opacity:0.30000000000000004"></path><path d="M312.91,111.27a.85.85,0,1,1-.56-1A.84.84,0,0,1,312.91,111.27Z" style="fill:#1E6D94;opacity:0.6000000000000001"></path><path d="M315.15,110.4a.85.85,0,1,1-1.62-.49.84.84,0,0,1,1.05-.56A.85.85,0,0,1,315.15,110.4Z" style="fill:#1E6D94;opacity:0.6000000000000001"></path><polygon points="318.29 118.19 309.04 121.84 308.49 120.02 317.73 116.37 318.29 118.19" style="fill:#1E6D94;opacity:0.5"></polygon></g><g id="freepik--Rocket--inject-15"><path d="M267.26,257.17a94,94,0,0,1-1.68,17.35q-1.77,7.71-5.5,11.28a12.3,12.3,0,0,1-8.81,3.57q-7.71,0-11.77-8.41a23.79,23.79,0,0,1-1.21-3.11,144.31,144.31,0,0,0-15.92,16l-5.31,6.26a38.62,38.62,0,0,0,9.77,7.19q9.34,4.83,24.52,4.84c1.78,0,3.5-.05,5.17-.15a143.39,143.39,0,0,0,15.1-29l14.85-38.72Z" style="opacity:0.2"></path><path d="M133.39,310l17.5,17.5,49-46.17C183,274.88,150.16,293.19,133.39,310Z" style="fill:#263238"></path><path d="M194.42,371c-5.59-5.6-17.5-17.5-17.5-17.5l46.17-49C229.5,321.35,211.19,354.22,194.42,371Z" style="fill:#263238"></path><path d="M261.4,260.7l19.09-36.81L243.68,243a144.22,144.22,0,0,0-32.44,23l-62.75,59.07,30.83,30.83,59.07-62.75A144.22,144.22,0,0,0,261.4,260.7Z" style="fill:#1E6D94"></path><path d="M261.4,260.7l19.09-36.81L243.68,243a144.22,144.22,0,0,0-32.44,23l-62.75,59.07,30.83,30.83,59.07-62.75A144.22,144.22,0,0,0,261.4,260.7Z" style="fill:#fff;opacity:0.6000000000000001"></path><circle cx="222.2" cy="282.18" r="12.9" style="fill:#fff"></circle><circle cx="222.2" cy="282.18" r="8.29" style="fill:#1E6D94"></circle><polygon points="189.75 344.82 159.56 314.63 184.28 291.37 213.01 320.11 189.75 344.82" style="fill:#1E6D94;opacity:0.30000000000000004"></polygon><path d="M140.22,337.62c-22.6,1.83-30.09,16.3-32.65,35.53-1.3,9.81-1.88,19.74-10.11,25.48a2.77,2.77,0,0,0,1.63,5.06c30.34-.95,44.49-15.8,46.27-22a43.06,43.06,0,0,1-2.49,9.47,2.76,2.76,0,0,0,4,3.39c8.51-5.33,19.19-15.15,19.9-31.08C160.51,354.6,140.22,337.62,140.22,337.62Z" style="fill:#1E6D94"></path><path d="M140.22,337.62c-22.6,1.83-30.09,16.3-32.65,35.53-1.3,9.81-1.88,19.74-10.11,25.48a2.77,2.77,0,0,0,1.63,5.06c30.34-.95,44.49-15.8,46.27-22a43.06,43.06,0,0,1-2.49,9.47,2.76,2.76,0,0,0,4,3.39c8.51-5.33,19.19-15.15,19.9-31.08C160.51,354.6,140.22,337.62,140.22,337.62Z" style="fill:#fff;opacity:0.2"></path><polygon points="170.28 370.3 134.08 334.1 153.36 329.93 174.45 351.02 170.28 370.3" style="fill:#1E6D94"></polygon></g></symbol>
<symbol id="icon-absent" viewBox="0 0 407.007 407.007">
<path d="M271.422,30.844h-29.78c-3.716-0.115-6.909-2.67-7.837-6.269c-2.822-14.661-15.903-25.082-30.824-24.555
				c-15.011-0.263-28.028,10.327-30.824,25.078c-0.966,3.5-4.209,5.878-7.837,5.747h-28.735v52.245h135.837V30.844z"/>
			<path d="M355.014,382.974V83.611c0.032-11.83-9.533-21.446-21.363-21.478c-0.542-0.001-1.084,0.018-1.625,0.057h-44.931v26.645
				c0,4.18-2.612,9.927-6.792,9.927H126.181c-4.18,0-6.269-5.747-6.269-9.927V62.191H74.981
				c-11.798-0.866-22.065,7.997-22.93,19.796c-0.04,0.541-0.059,1.083-0.057,1.625v299.363
				c-0.292,12.981,9.995,23.741,22.976,24.032c0.004,0,0.008,0,0.012,0h257.045c12.981-0.285,23.273-11.04,22.988-24.021
				C355.014,382.982,355.014,382.978,355.014,382.974z M161.185,314.011l-40.751,38.139c-1.303,1.559-3.196,2.505-5.224,2.612
				c-2.183-0.086-4.246-1.024-5.747-2.612l-21.42-21.943c-2.847-3.188-2.614-8.069,0.522-10.971c3.047-2.987,7.924-2.987,10.971,0
				l15.673,16.718l35.527-33.437c3.562-2.458,8.443-1.564,10.901,1.998C163.643,307.421,163.457,311.309,161.185,314.011z
				 M161.185,230.419L161.185,230.419l-40.751,38.139c-1.303,1.559-3.196,2.505-5.224,2.612c-2.183-0.086-4.246-1.024-5.747-2.612
				l-21.42-21.943c-2.847-3.188-2.614-8.069,0.522-10.971c3.047-2.987,7.924-2.987,10.971,0l15.673,16.718l35.527-33.437
				c3.562-2.458,8.443-1.564,10.901,1.998C163.643,223.829,163.457,227.717,161.185,230.419z M161.185,146.827l-40.751,38.139
				c-1.303,1.559-3.196,2.505-5.224,2.612c-2.183-0.086-4.246-1.024-5.747-2.612l-21.42-21.943
				c-2.847-3.188-2.614-8.069,0.522-10.971c3.047-2.987,7.924-2.987,10.971,0l15.673,16.718l35.527-33.437
				c3.562-2.458,8.443-1.564,10.901,1.998C163.643,140.237,163.457,144.125,161.185,146.827z M313.218,344.313H193.054
				c-4.328,0-7.837-3.509-7.837-7.837s3.509-7.837,7.837-7.837h120.163c4.328,0,7.837,3.509,7.837,7.837
				S317.546,344.313,313.218,344.313z M313.218,260.721H193.054c-4.328,0-7.837-3.509-7.837-7.837c0-4.328,3.509-7.837,7.837-7.837
				h120.163c4.328,0,7.837,3.509,7.837,7.837C321.054,257.212,317.546,260.721,313.218,260.721z M313.218,177.129H193.054
				c-4.328,0-7.837-3.509-7.837-7.837c0-4.328,3.509-7.837,7.837-7.837h120.163c4.328,0,7.837,3.509,7.837,7.837
				C321.054,173.621,317.546,177.129,313.218,177.129z"/>
</symbol>
</defs>
</svg>