<svg style="position: absolute; width: 0; height: 0; overflow: hidden;" version="1.1" xmlns="http://www.w3.org/2000/svg">
<defs>
<symbol id="icon-home" viewBox="0 0 24 24">
<path d="M 12 2 A 1 1 0 0 0 11.289062 2.296875 L 1.203125 11.097656 A 0.5 0.5 0 0 0 1 11.5 A 0.5 0.5 0 0 0 1.5 12 L 4 12 L 4 20 C 4 20.552 4.448 21 5 21 L 9 21 C 9.552 21 10 20.552 10 20 L 10 14 L 14 14 L 14 20 C 14 20.552 14.448 21 15 21 L 19 21 C 19.552 21 20 20.552 20 20 L 20 12 L 22.5 12 A 0.5 0.5 0 0 0 23 11.5 A 0.5 0.5 0 0 0 22.796875 11.097656 L 12.716797 2.3027344 A 1 1 0 0 0 12.710938 2.296875 A 1 1 0 0 0 12 2 z"/>
</symbol>
<symbol id="icon-live" viewBox="0 0 24 24">
<path d="M 4.2246094 4.2246094 C 2.2336094 6.2166094 1 8.967 1 12 C 1 15.033 2.2336094 17.783391 4.2246094 19.775391 L 5.6386719 18.361328 C 4.0086719 16.731328 3 14.481 3 12 C 3 9.519 4.0086719 7.2686719 5.6386719 5.6386719 L 4.2246094 4.2246094 z M 19.775391 4.2246094 L 18.361328 5.6386719 C 19.991328 7.2686719 21 9.519 21 12 C 21 14.481 19.991328 16.731328 18.361328 18.361328 L 19.775391 19.775391 C 21.766391 17.783391 23 15.033 23 12 C 23 8.967 21.766391 6.2166094 19.775391 4.2246094 z M 7.0527344 7.0527344 C 5.7847344 8.3197344 5 10.07 5 12 C 5 13.93 5.7847344 15.680266 7.0527344 16.947266 L 8.4667969 15.533203 C 7.5607969 14.628203 7 13.378 7 12 C 7 10.622 7.5617969 9.3727969 8.4667969 8.4667969 L 7.0527344 7.0527344 z M 16.947266 7.0527344 L 15.533203 8.4667969 C 16.439203 9.3717969 17 10.622 17 12 C 17 13.378 16.438203 14.627203 15.533203 15.533203 L 16.947266 16.947266 C 18.214266 15.679266 19 13.93 19 12 C 19 10.07 18.215266 8.3197344 16.947266 7.0527344 z M 12 9 A 3 3 0 0 0 12 15 A 3 3 0 0 0 12 9 z"/>
</symbol>
<symbol id="icon-exit" viewBox="0 0 24 24">
<path d="M 4.9902344 3.9902344 A 1.0001 1.0001 0 0 0 4.2929688 5.7070312 L 10.585938 12 L 4.2929688 18.292969 A 1.0001 1.0001 0 1 0 5.7070312 19.707031 L 12 13.414062 L 18.292969 19.707031 A 1.0001 1.0001 0 1 0 19.707031 18.292969 L 13.414062 12 L 19.707031 5.7070312 A 1.0001 1.0001 0 0 0 18.980469 3.9902344 A 1.0001 1.0001 0 0 0 18.292969 4.2929688 L 12 10.585938 L 5.7070312 4.2929688 A 1.0001 1.0001 0 0 0 4.9902344 3.9902344 z"/>
</symbol>
<symbol id="icon-info" viewBox="0 0 50 50">
<path d="M25,2C12.297,2,2,12.297,2,25s10.297,23,23,23s23-10.297,23-23S37.703,2,25,2z M25,11c1.657,0,3,1.343,3,3s-1.343,3-3,3 s-3-1.343-3-3S23.343,11,25,11z M29,38h-2h-4h-2v-2h2V23h-2v-2h2h4v2v13h2V38z"/>
</symbol>
<symbol id="icon-stages" viewBox="0 0 512 512">
<path d="m497 0h-482c-8.285156 0-15 6.714844-15 15v482c0 8.285156 6.714844 15 15 15h482c8.285156 0 15-6.714844 15-15 0-14.273438 0-463.605469 0-482 0-8.285156-6.714844-15-15-15zm-104.652344 482h-30.347656v-45c0-8.285156-6.714844-15-15-15h-182c-8.285156 0-15 6.714844-15 15v45h-30.347656c-2.367188-54.671875-16.792969-138.714844-51.054688-181.769531 25.378906-3.832031 55.464844-13.433594 81.601563-35.578125 37.308593-31.601563 57.320312-80.683594 59.582031-146 10.703125-3.53125 18.699219-10.417969 25.511719-16.289063 8.417969-7.257812 13.53125-11.363281 20.707031-11.363281s12.289062 4.105469 20.707031 11.359375c6.8125 5.875 14.8125 12.761719 25.515625 16.289063 2.257813 65.316406 22.269532 114.398437 59.578125 146.003906 26.140625 22.144531 56.226563 31.746094 81.601563 35.578125-34.261719 43.054687-48.6875 127.101562-51.054688 181.769531zm-60.347656 0h-152v-30h152zm-270.222656-285.445312c3.914062 7.300781 13.007812 10.046874 20.308594 6.136718 32.753906-17.550781 38.605468-64.996094 37.859374-101.992187-.015624-.875-.125-1.726563-.285156-2.558594 5.519532-4.601563 9.761719-7.140625 15.339844-7.140625 7.058594 0 11.96875 4.054688 20.042969 11.21875 6.578125 5.839844 14.28125 12.667969 24.722656 16.265625-2.089844 55.945313-18.460937 97.328125-48.757813 123.109375-34.519531 29.378906-79.476562 31.589844-101.007812 30.679688v-174.414063c1.5625 1.289063 3.21875 2.742187 5.042969 4.359375 9.429687 8.367188 21.160156 18.78125 39.957031 18.78125 5.441406 0 10.285156-.875 14.660156-2.320312-1.046875 18.734374-5.125 48.660156-21.746094 57.566406-7.300781 3.914062-10.046874 13.007812-6.136718 20.308594zm368.136718 6.136718c7.304688 3.914063 16.394532 1.164063 20.308594-6.136718 3.910156-7.300782 1.164063-16.394532-6.136718-20.308594-16.78125-8.992188-20.675782-38.347656-21.742188-57.566406 4.371094 1.445312 9.214844 2.320312 14.65625 2.320312 18.796875 0 30.527344-10.414062 39.957031-18.78125 1.824219-1.617188 3.480469-3.070312 5.042969-4.359375v174.460937c-21.421875.964844-66.105469-1.160156-100.808594-30.558593-30.425781-25.769531-46.863281-67.210938-48.957031-123.277344 10.441406-3.597656 18.144531-10.425781 24.722656-16.265625 8.074219-7.164062 12.984375-11.21875 20.042969-11.21875 5.507812 0 9.710938 2.476562 15.125 6.964844-1.1875 38.011718 4.351562 86.808594 37.789062 104.726562zm52.085938-172.691406v33.433594c-10.558594 3.578125-18.328125 10.464844-24.957031 16.347656-8.074219 7.164062-12.984375 11.21875-20.042969 11.21875s-11.96875-4.054688-20.042969-11.21875c-9.429687-8.367188-21.160156-18.78125-39.957031-18.78125s-30.527344 10.414062-39.957031 18.78125c-8.074219 7.164062-12.984375 11.21875-20.042969 11.21875-7.175781 0-12.289062-4.105469-20.707031-11.359375-9.632813-8.304687-21.621094-18.640625-40.292969-18.640625s-30.660156 10.335938-40.292969 18.640625c-8.417969 7.253906-13.53125 11.359375-20.707031 11.359375-7.058594 0-11.96875-4.054688-20.042969-11.21875-9.429687-8.367188-21.160156-18.78125-39.957031-18.78125s-30.527344 10.414062-39.957031 18.78125c-8.074219 7.164062-12.984375 11.21875-20.042969 11.21875s-11.96875-4.054688-20.042969-11.21875c-6.628906-5.882812-14.398437-12.769531-24.957031-16.347656v-33.433594zm-452 452v-176.828125c41.21875 23.511719 57.386719 129.191406 59.625 176.828125zm452 0h-59.625c2.238281-47.640625 18.40625-153.316406 59.625-176.828125zm0 0"/>
</symbol>
<symbol id="icon-absent" viewBox="0 0 407.007 407.007">
<path d="M271.422,30.844h-29.78c-3.716-0.115-6.909-2.67-7.837-6.269c-2.822-14.661-15.903-25.082-30.824-24.555
				c-15.011-0.263-28.028,10.327-30.824,25.078c-0.966,3.5-4.209,5.878-7.837,5.747h-28.735v52.245h135.837V30.844z"/>
			<path d="M355.014,382.974V83.611c0.032-11.83-9.533-21.446-21.363-21.478c-0.542-0.001-1.084,0.018-1.625,0.057h-44.931v26.645
				c0,4.18-2.612,9.927-6.792,9.927H126.181c-4.18,0-6.269-5.747-6.269-9.927V62.191H74.981
				c-11.798-0.866-22.065,7.997-22.93,19.796c-0.04,0.541-0.059,1.083-0.057,1.625v299.363
				c-0.292,12.981,9.995,23.741,22.976,24.032c0.004,0,0.008,0,0.012,0h257.045c12.981-0.285,23.273-11.04,22.988-24.021
				C355.014,382.982,355.014,382.978,355.014,382.974z M161.185,314.011l-40.751,38.139c-1.303,1.559-3.196,2.505-5.224,2.612
				c-2.183-0.086-4.246-1.024-5.747-2.612l-21.42-21.943c-2.847-3.188-2.614-8.069,0.522-10.971c3.047-2.987,7.924-2.987,10.971,0
				l15.673,16.718l35.527-33.437c3.562-2.458,8.443-1.564,10.901,1.998C163.643,307.421,163.457,311.309,161.185,314.011z
				 M161.185,230.419L161.185,230.419l-40.751,38.139c-1.303,1.559-3.196,2.505-5.224,2.612c-2.183-0.086-4.246-1.024-5.747-2.612
				l-21.42-21.943c-2.847-3.188-2.614-8.069,0.522-10.971c3.047-2.987,7.924-2.987,10.971,0l15.673,16.718l35.527-33.437
				c3.562-2.458,8.443-1.564,10.901,1.998C163.643,223.829,163.457,227.717,161.185,230.419z M161.185,146.827l-40.751,38.139
				c-1.303,1.559-3.196,2.505-5.224,2.612c-2.183-0.086-4.246-1.024-5.747-2.612l-21.42-21.943
				c-2.847-3.188-2.614-8.069,0.522-10.971c3.047-2.987,7.924-2.987,10.971,0l15.673,16.718l35.527-33.437
				c3.562-2.458,8.443-1.564,10.901,1.998C163.643,140.237,163.457,144.125,161.185,146.827z M313.218,344.313H193.054
				c-4.328,0-7.837-3.509-7.837-7.837s3.509-7.837,7.837-7.837h120.163c4.328,0,7.837,3.509,7.837,7.837
				S317.546,344.313,313.218,344.313z M313.218,260.721H193.054c-4.328,0-7.837-3.509-7.837-7.837c0-4.328,3.509-7.837,7.837-7.837
				h120.163c4.328,0,7.837,3.509,7.837,7.837C321.054,257.212,317.546,260.721,313.218,260.721z M313.218,177.129H193.054
				c-4.328,0-7.837-3.509-7.837-7.837c0-4.328,3.509-7.837,7.837-7.837h120.163c4.328,0,7.837,3.509,7.837,7.837
				C321.054,173.621,317.546,177.129,313.218,177.129z"/>
</symbol>
</defs>
</svg>